<?xml version="1.0" standalone="no"?>
<!DOCTYPE svg PUBLIC "-//W3C//DTD SVG 20010904//EN"
 "http://www.w3.org/TR/2001/REC-SVG-20010904/DTD/svg10.dtd">
<svg version="1.0" xmlns="http://www.w3.org/2000/svg"
 width="2000.000000pt" height="369.000000pt" viewBox="0 0 2000.000000 369.000000"
 preserveAspectRatio="xMidYMid meet">

<g transform="translate(0.000000,369.000000) scale(0.100000,-0.100000)"
fill="#000000" stroke="none">
<path d="M0 1845 l0 -1845 1009 0 1009 0 -28 72 c-16 40 -47 118 -70 173 -23
55 -75 183 -116 285 -42 102 -82 201 -91 220 -8 19 -20 46 -25 60 -6 14 -14
33 -19 42 -5 10 -9 25 -9 33 0 8 -4 23 -9 33 -15 30 -29 65 -45 112 -8 25 -34
97 -57 160 -23 63 -71 207 -108 320 -37 113 -86 255 -108 315 -61 163 -231
620 -319 860 -43 116 -79 231 -82 257 -7 74 28 115 124 144 l47 14 -41 -38
c-67 -62 -65 -71 113 -527 26 -66 110 -284 187 -485 271 -709 324 -846 493
-1280 59 -151 115 -295 125 -320 9 -25 52 -136 96 -247 l79 -202 843 -1 c478
0 842 4 842 9 0 5 -30 80 -66 167 -210 505 -183 439 -354 859 -174 428 -162
395 -145 395 8 0 26 -22 39 -48 32 -63 48 -76 88 -68 41 8 68 33 68 62 0 27
-200 449 -229 482 -28 31 -66 28 -103 -8 -17 -17 -31 -30 -33 -28 -1 2 -12 24
-24 51 -14 29 -34 53 -53 63 -28 14 -29 17 -14 33 9 10 16 21 16 25 0 4 -30
81 -66 172 -37 91 -64 168 -60 171 6 6 272 -12 546 -37 58 -6 206 -17 330 -26
216 -15 296 -21 570 -44 69 -6 195 -15 280 -20 85 -5 214 -14 285 -20 72 -6
184 -15 250 -20 66 -5 176 -14 245 -20 69 -5 226 -16 350 -25 124 -8 360 -26
525 -39 165 -14 372 -30 460 -36 88 -6 324 -24 525 -40 378 -31 1253 -96 1420
-107 l95 -6 -3 -53 c-3 -47 -1 -54 22 -69 30 -20 93 -15 108 7 4 7 8 34 8 61
l0 47 38 0 c20 0 47 -3 60 -6 21 -6 22 -8 6 -25 -21 -23 -10 -74 20 -94 23
-15 59 -10 103 13 14 8 30 6 64 -10 33 -15 50 -18 70 -10 24 9 28 5 68 -61
l42 -70 6 -141 c3 -78 10 -147 16 -153 11 -15 91 -17 117 -3 16 9 22 1 50 -58
39 -86 50 -107 149 -282 62 -109 372 -717 495 -967 l11 -23 4883 0 4882 0 0
1845 0 1845 -4817 0 -4818 0 0 -52 c0 -67 -13 -190 -26 -248 -5 -25 -10 -52
-10 -60 -1 -8 -10 -51 -21 -95 -24 -94 -39 -180 -39 -215 0 -14 -16 -86 -35
-160 -41 -156 -38 -143 -57 -240 -15 -72 -28 -176 -32 -250 -1 -19 -6 -84 -10
-145 -4 -60 -9 -159 -10 -220 -1 -60 -3 -147 -3 -192 l-2 -83 -62 0 c-108 0
-191 -60 -218 -156 -7 -24 -16 -44 -19 -44 -4 0 -12 19 -19 42 -24 89 -66 132
-149 153 -44 11 -48 16 -97 101 -29 49 -69 123 -90 164 -22 41 -66 119 -98
174 l-60 99 12 81 c6 44 16 99 21 121 9 41 26 274 34 474 3 62 7 117 10 121 3
4 5 46 6 92 0 45 7 157 16 248 18 203 18 211 -2 255 l-17 35 -2223 0 -2224 0
-6 -55 c-4 -30 -5 -67 -2 -82 3 -15 -3 -77 -13 -138 -10 -60 -24 -164 -30
-230 -6 -66 -13 -127 -15 -135 -2 -8 -5 -77 -7 -152 l-3 -138 -78 0 c-88 0
-126 13 -106 36 6 8 29 14 50 14 63 0 90 62 49 111 l-19 24 -1 -42 c0 -34 -5
-46 -25 -59 -14 -9 -37 -14 -54 -12 l-29 4 -4 -119 c-3 -130 -11 -147 -68
-147 -53 0 -65 20 -70 122 l-5 93 -65 9 c-36 5 -56 11 -45 14 11 2 26 9 33 14
14 12 16 94 2 103 -6 4 -10 -8 -10 -29 0 -43 -34 -71 -79 -64 -28 4 -30 2 -36
-34 -4 -20 -4 -51 0 -68 5 -25 12 -30 35 -30 58 0 81 -69 39 -111 -18 -18 -29
-20 -66 -15 -105 14 -133 49 -140 173 l-5 88 -32 0 c-29 0 -31 2 -36 45 -5 41
-6 43 -13 17 -14 -50 -41 -67 -92 -60 -69 9 -75 -1 -75 -123 0 -120 -12 -144
-75 -144 -19 0 -35 -4 -35 -8 0 -11 -112 -3 -125 9 -5 5 15 9 49 9 56 0 58 1
52 23 -3 12 -6 74 -6 137 l0 116 -32 12 c-38 14 -43 11 -28 -18 20 -37 9 -150
-18 -188 -43 -60 -88 -86 -158 -90 -84 -6 -141 21 -183 85 -49 73 -53 148 -12
219 18 30 18 31 0 43 -19 11 -19 12 2 40 18 25 20 37 14 78 -7 48 -28 83 -50
83 -7 0 -26 7 -43 16 -17 8 -66 22 -109 31 -92 18 -111 32 -96 66 14 29 -4
117 -23 117 -7 0 -16 10 -20 22 -4 13 -30 45 -59 73 -42 41 -53 58 -59 95 -4
24 -11 49 -17 56 -5 7 -12 24 -15 38 -5 29 -5 29 111 44 45 6 -480 10 -1457
11 l-1528 1 0 -1845z m13660 1771 c41 -9 104 -31 140 -49 53 -26 66 -37 68
-59 2 -19 -3 -31 -20 -42 -13 -8 -34 -35 -47 -59 -15 -28 -38 -51 -61 -63
-183 -94 -200 -97 -315 -62 -44 14 -109 31 -145 37 -104 19 -142 33 -184 66
-38 30 -66 71 -66 98 0 71 277 161 470 152 47 -2 119 -11 160 -19z m5211 -107
c48 -16 99 -57 99 -78 0 -10 10 -31 21 -45 22 -28 22 -28 2 -54 -12 -17 -43
-35 -79 -48 -75 -26 -137 -58 -194 -99 -68 -50 -131 -67 -235 -67 -174 1 -275
28 -348 93 -30 27 -40 43 -44 77 -6 42 -4 45 48 93 61 58 92 76 163 94 81 20
122 24 261 26 72 0 157 4 190 9 33 4 65 8 71 9 6 0 26 -4 45 -10z m-4041 -50
c83 -13 241 -88 259 -123 18 -33 7 -69 -26 -92 -40 -26 -186 -31 -278 -10 -83
20 -232 92 -252 122 -16 24 -9 66 13 85 30 25 182 35 284 18z m-1523 -269
c154 -42 223 -90 223 -151 0 -16 -12 -53 -27 -84 l-27 -55 27 -50 c44 -82 18
-113 -143 -165 -47 -15 -105 -38 -130 -50 -25 -12 -69 -33 -99 -46 -29 -13
-60 -33 -67 -45 -36 -54 -333 -164 -617 -228 -117 -27 -161 -42 -207 -70 -32
-20 -69 -36 -83 -36 -14 0 -33 -8 -43 -17 -9 -10 -28 -16 -41 -15 -12 2 -23
-1 -23 -7 0 -12 28 -40 41 -42 5 -1 14 -2 19 -3 11 -1 12 -3 4 -31 -7 -27 -37
-46 -83 -51 -20 -3 -44 -7 -53 -10 -10 -3 -30 -8 -45 -10 -15 -3 -33 -10 -40
-16 -16 -13 -63 -2 -63 15 0 7 -9 18 -21 25 -14 9 -19 21 -17 40 2 21 15 33
60 57 32 16 57 34 55 39 -4 12 -75 50 -122 66 -53 17 -85 39 -95 64 -10 28 3
50 45 75 20 11 34 25 31 30 -3 5 7 26 22 47 15 22 33 51 39 66 8 17 23 30 40
33 75 15 78 18 78 65 1 30 -5 49 -17 59 -39 34 -8 72 67 85 45 8 441 -18 524
-34 81 -15 193 -12 237 6 55 23 104 62 104 83 0 25 -62 127 -102 168 -74 76
-16 149 146 183 151 31 312 35 403 10z m2191 0 c87 -14 167 -46 209 -83 48
-42 57 -70 37 -113 -28 -59 -99 -87 -259 -102 l-79 -7 73 -65 c108 -96 123
-138 74 -203 -42 -54 -104 -84 -207 -97 -134 -18 -255 -1 -356 51 -86 44 -120
81 -120 131 0 33 33 91 63 111 40 26 173 66 261 79 47 6 86 15 86 18 0 3 -26
18 -57 32 -131 60 -154 148 -56 209 71 44 204 59 331 39z m-10407 -40 c18 -10
19 -23 19 -199 0 -227 4 -251 36 -251 31 0 49 -37 40 -84 -4 -23 -14 -37 -27
-41 -30 -10 -116 5 -140 23 -32 26 -39 81 -39 314 0 213 0 217 22 232 26 18
61 20 89 6z m-1916 -42 c95 -51 138 -163 100 -256 -33 -79 -99 -120 -206 -129
l-69 -6 0 -51 c0 -61 -19 -93 -58 -99 -22 -3 -20 -4 10 -6 27 -1 44 6 64 24
15 14 32 25 37 25 6 0 2 6 -9 14 -10 8 -16 17 -12 21 4 4 84 -1 178 -11 151
-16 174 -21 194 -41 40 -39 100 -52 244 -52 73 0 138 -4 145 -8 17 -10 70 -4
78 9 10 16 153 16 309 0 69 -7 175 -17 235 -22 61 -5 111 -9 113 -9 2 -1 1 -5
-2 -10 -9 -14 15 -28 67 -42 36 -9 51 -9 60 0 8 8 7 11 -4 12 -7 1 -18 2 -24
4 -5 1 -27 3 -47 3 -21 1 -38 7 -38 13 0 13 180 7 330 -10 101 -12 404 -41
425 -41 8 0 15 8 15 18 0 9 15 51 33 93 l34 76 -64 107 c-99 166 -103 176 -92
197 13 25 66 51 87 45 10 -3 42 -47 71 -96 29 -50 57 -92 61 -95 4 -3 15 12
23 33 33 83 69 151 83 156 8 3 30 -1 49 -8 63 -27 62 -35 -26 -232 -45 -98
-94 -210 -111 -249 -16 -38 -33 -74 -38 -78 -9 -10 -39 -12 -70 -4 -14 4 -7
-2 15 -13 53 -26 61 -25 91 7 l25 27 232 -23 c128 -12 333 -31 457 -42 124
-10 311 -28 415 -38 105 -11 226 -22 270 -26 81 -6 255 -27 375 -45 36 -5 97
-12 137 -15 39 -3 83 -9 97 -15 15 -5 56 -10 94 -11 37 -1 118 -8 180 -15 62
-8 159 -14 216 -14 56 0 127 -4 157 -10 53 -9 392 -41 654 -61 171 -13 320
-36 356 -55 41 -21 53 -53 28 -79 -27 -28 -132 -31 -343 -11 -315 31 -719 66
-976 86 -538 42 -1247 100 -1470 119 -99 9 -320 27 -615 51 -71 6 -227 20
-345 30 -118 11 -276 24 -350 30 -74 6 -290 24 -480 41 -190 16 -460 38 -600
49 -246 19 -349 28 -605 50 -66 6 -181 15 -255 20 -138 10 -292 22 -480 40
-192 18 -343 31 -540 45 -107 9 -247 20 -310 27 -130 13 -147 22 -168 98 -8
25 -18 60 -24 78 -5 19 -6 38 -2 42 5 4 44 6 86 3 l77 -6 -5 -27 c-5 -23 -2
-28 21 -34 37 -9 68 2 60 22 -3 8 -1 18 4 21 13 9 259 -9 546 -39 202 -21 315
-31 398 -37 l87 -6 0 216 c0 267 -11 250 165 245 85 -3 129 -9 150 -20z
m14759 6 c19 -9 39 -26 45 -38 6 -11 23 -36 36 -55 34 -46 32 -66 -7 -82 -75
-32 -234 -3 -330 60 -76 48 -42 88 97 116 85 18 119 17 159 -1z m-1001 -184
c228 -37 265 -48 313 -92 37 -34 45 -48 50 -89 8 -59 24 -70 86 -63 64 8 187
-13 303 -51 138 -45 263 -70 450 -90 88 -9 193 -26 234 -36 80 -20 141 -59
141 -89 0 -10 12 -27 26 -38 22 -15 26 -24 20 -46 -9 -36 -40 -48 -261 -102
-99 -24 -210 -53 -246 -64 -37 -11 -129 -36 -205 -56 -154 -39 -236 -73 -262
-111 -45 -64 -76 -91 -148 -128 l-78 -39 -125 0 c-193 0 -329 47 -448 154 -37
34 -85 77 -106 96 -54 49 -77 92 -77 144 0 58 29 105 101 164 55 45 87 95 75
115 -3 5 -63 28 -131 51 -138 46 -178 72 -206 135 -22 50 -13 97 26 135 14 14
33 33 43 43 26 28 68 47 136 62 86 19 150 18 289 -5z m-12015 -232 c14 -14 16
-86 3 -106 -4 -8 -26 -16 -48 -19 -50 -7 -83 20 -83 68 0 54 15 69 68 69 27 0
53 -5 60 -12z m9037 -293 c98 -21 164 -27 360 -35 208 -7 260 -12 394 -40 84
-17 162 -37 172 -43 27 -17 33 -47 15 -82 -24 -46 -20 -60 26 -81 56 -25 58
-44 8 -68 -22 -11 -40 -22 -40 -25 0 -3 14 -15 30 -26 17 -11 35 -34 41 -52
13 -40 29 -53 70 -58 41 -6 57 -21 41 -37 -9 -9 -16 -8 -30 5 -23 21 -100 23
-126 4 -11 -8 -20 -31 -23 -60 -3 -26 -10 -47 -14 -47 -5 0 -9 -12 -9 -26 0
-21 -3 -25 -17 -18 -10 4 -35 9 -55 12 -35 4 -38 2 -71 -49 -36 -55 -99 -101
-117 -83 -5 5 -24 36 -42 69 -38 67 -63 78 -117 50 -45 -23 -49 -56 -17 -123
15 -30 26 -55 24 -57 -2 -1 -17 -7 -34 -13 l-32 -10 1 47 c1 53 -32 121 -70
146 -36 24 -112 35 -168 24 -100 -19 -158 -86 -171 -196 -3 -35 -10 -63 -14
-63 -11 0 -24 96 -15 110 4 6 3 76 -1 156 -8 165 -12 174 -79 174 -61 0 -75
-22 -75 -122 0 -43 -2 -78 -4 -78 -1 0 -17 5 -34 11 -43 15 -104 -4 -152 -47
-48 -43 -70 -90 -70 -147 0 -42 -2 -45 -31 -51 -39 -8 -93 -8 -140 0 -35 6
-37 8 -43 57 -19 143 -135 227 -267 193 -92 -24 -149 -90 -164 -189 -11 -72
-35 -56 -35 23 0 117 -100 193 -196 151 -23 -10 -45 -24 -48 -30 -5 -8 -17 -4
-36 12 -40 34 -91 42 -135 22 -31 -15 -36 -15 -57 -1 -28 20 -65 20 -102 1
-40 -21 -115 -19 -191 6 -58 20 -70 20 -117 9 -73 -17 -124 -14 -175 11 -29
14 -48 32 -57 53 -13 30 -12 31 19 41 44 14 85 43 85 59 0 24 55 44 107 40 26
-2 66 -3 88 -2 49 2 105 1 210 -5 44 -3 96 -3 116 0 l36 5 -24 46 -25 47 49
43 c56 50 131 90 240 127 75 27 84 27 220 22 136 -6 145 -8 198 -38 74 -41
128 -124 95 -144 -18 -11 -11 -50 16 -91 53 -81 95 -91 263 -57 69 14 138 27
154 30 40 8 41 19 4 41 -17 11 -59 36 -92 56 -33 20 -86 61 -117 92 -57 54
-58 56 -58 111 0 53 2 58 41 94 23 21 66 48 96 59 30 11 69 28 86 38 18 9 46
20 62 24 53 12 216 -1 340 -27z m-10795 -25 c0 -12 -8 -12 -35 0 -18 8 -17 9
8 9 15 1 27 -3 27 -9z m12764 -345 c21 -32 15 -41 -33 -56 -44 -13 -75 -2 -84
31 -4 15 2 24 21 35 42 22 77 19 96 -10z m-13884 -4 c0 -6 -10 -17 -22 -25
-42 -29 -95 -14 -68 19 14 16 90 21 90 6z m145 -21 c3 -5 -3 -10 -14 -10 -12
0 -21 5 -21 10 0 6 6 10 14 10 8 0 18 -4 21 -10z m185 -20 c0 -12 -94 -12
-130 0 -17 6 -2 8 53 9 45 1 77 -3 77 -9z m6903 -127 c40 -17 46 -35 21 -71
-18 -26 -41 -28 -88 -5 -32 15 -38 15 -78 0 -60 -23 -75 -21 -92 11 -20 39 -8
53 66 78 66 22 86 21 171 -13z m-369 11 c10 -26 7 -69 -6 -82 -20 -20 -86 -15
-98 7 -14 26 -13 64 2 79 18 18 95 15 102 -4z m1460 0 c10 -26 7 -69 -6 -82
-20 -20 -86 -15 -98 7 -14 26 -13 64 2 79 18 18 95 15 102 -4z m3566 -3 c6
-12 10 -115 10 -265 0 -209 -2 -247 -16 -260 -20 -21 -72 -21 -95 0 -16 14
-20 14 -50 -1 -95 -50 -221 50 -221 173 0 131 130 230 227 174 l35 -21 0 103
c0 56 3 106 7 109 3 4 26 7 49 7 33 0 46 -5 54 -19z m1440 0 c48 -11 120 -36
174 -61 41 -20 55 -35 62 -68 1 -7 9 -24 18 -37 11 -16 16 -47 16 -93 0 -67
-1 -71 -32 -95 -18 -14 -46 -37 -62 -51 -22 -19 -40 -26 -72 -26 -42 0 -44 1
-54 38 -15 59 -62 92 -152 108 -21 3 -38 10 -38 15 0 13 48 11 87 -3 29 -11
35 -10 58 12 19 18 25 33 23 55 -4 40 -42 58 -134 63 -84 5 -137 -15 -159 -59
-32 -60 -9 -154 44 -187 l31 -18 -35 -2 c-83 -4 -103 -3 -165 8 -36 6 -91 14
-122 17 l-58 5 17 31 c9 18 27 49 41 70 23 35 26 36 42 22 39 -35 98 6 138 94
31 70 74 116 132 143 52 24 116 38 145 31 11 -2 36 -8 55 -12z m-12138 -24
c25 -26 231 -466 225 -481 -4 -9 -22 -24 -41 -33 -44 -21 -60 -10 -93 65 l-23
53 -108 -3 -107 -3 -30 -57 c-34 -66 -43 -71 -85 -57 -61 22 -59 30 55 266 58
120 113 228 121 240 16 26 64 31 86 10z m11799 -8 c23 -45 -15 -170 -63 -203
-52 -37 -78 -7 -33 38 27 28 33 66 10 66 -31 0 -48 83 -23 108 7 7 31 12 55
12 33 0 45 -5 54 -21z m3750 -65 c70 -21 120 -47 163 -85 63 -54 61 -144 -3
-208 -54 -54 -137 -75 -269 -69 -88 4 -106 9 -173 41 -114 57 -139 84 -139
157 0 102 125 179 291 180 41 0 100 -7 130 -16z m-16576 -14 c-8 -13 -105 -13
-125 0 -10 7 7 10 58 10 46 0 71 -4 67 -10z m187 -9 c58 -8 59 -9 18 -10 -59
-1 -120 9 -120 21 0 5 9 7 20 3 10 -3 48 -10 82 -14z m8751 -55 c41 -17 46
-33 19 -67 -18 -21 -21 -22 -65 -10 -52 15 -97 8 -97 -14 0 -17 15 -24 103
-49 39 -12 63 -25 74 -42 21 -33 21 -105 0 -137 -35 -54 -177 -69 -254 -29
-48 25 -50 30 -27 74 17 33 23 33 98 5 43 -16 91 -9 91 13 0 8 -27 20 -65 31
-96 26 -129 69 -121 159 3 32 37 68 75 80 41 12 123 6 169 -14z m966 -2 c76
-38 106 -88 106 -173 0 -57 -4 -72 -30 -108 -76 -106 -223 -118 -308 -24 -92
102 -66 245 56 306 65 32 110 32 176 -1z m1090 0 c76 -38 106 -88 106 -173 0
-57 -4 -72 -30 -108 -76 -106 -223 -118 -308 -24 -92 102 -66 245 56 306 65
32 110 32 176 -1z m1091 4 c61 -32 85 -68 85 -128 0 -75 -14 -84 -140 -88 -81
-3 -105 -7 -105 -18 0 -18 51 -44 86 -44 15 0 45 5 67 12 37 11 41 10 59 -12
27 -33 19 -62 -22 -82 -47 -24 -152 -24 -205 1 -94 43 -137 151 -101 254 19
52 42 76 101 103 63 30 118 30 175 2z m226 14 c6 -4 36 -55 68 -114 31 -60 59
-108 61 -108 2 0 27 44 55 99 28 54 59 106 69 115 18 16 22 16 50 2 60 -31 58
-39 -42 -212 l-92 -159 -40 0 -40 0 -68 115 c-37 63 -79 137 -93 163 -25 48
-25 50 -7 69 15 18 46 36 63 37 3 0 10 -3 16 -7z m837 -16 c41 -17 46 -33 19
-67 -18 -21 -21 -22 -65 -10 -52 15 -97 8 -97 -14 0 -17 15 -24 103 -49 39
-12 63 -25 74 -42 21 -33 21 -105 0 -137 -35 -54 -177 -69 -254 -29 -48 25
-50 30 -27 74 17 33 23 33 98 5 43 -16 91 -9 91 13 0 8 -27 20 -65 31 -96 26
-129 69 -121 159 3 32 37 68 75 80 41 12 123 6 169 -14z m-5831 -11 l11 -24
29 24 c51 43 121 30 180 -32 40 -42 48 -74 48 -192 0 -118 -6 -131 -54 -131
-55 0 -60 10 -64 122 -5 117 -15 138 -69 138 -60 0 -73 -25 -73 -138 0 -63 -4
-102 -12 -110 -20 -20 -86 -15 -98 7 -5 11 -10 86 -10 171 0 85 5 160 10 171
8 14 21 19 51 19 32 0 41 -4 51 -25z m617 5 c48 -24 56 -44 33 -84 -20 -33
-27 -34 -117 -20 -33 5 -44 2 -59 -15 -39 -44 -12 -121 42 -121 14 0 40 5 58
12 29 10 36 9 55 -8 37 -33 43 -53 22 -76 -63 -70 -199 -63 -270 14 -29 30
-53 89 -53 128 0 66 54 149 115 176 45 20 129 17 174 -6z m212 10 c18 -10 19
-23 19 -178 0 -117 -4 -172 -12 -180 -20 -20 -86 -15 -98 7 -5 11 -10 86 -10
171 0 85 5 160 10 171 12 21 59 26 91 9z m320 -16 c19 -17 20 -17 35 4 10 14
26 22 44 22 61 0 60 4 60 -190 0 -194 1 -190 -60 -190 -18 0 -34 8 -44 21
l-15 22 -27 -22 c-83 -65 -233 41 -234 167 0 67 52 149 115 178 37 18 100 11
126 -12z m1048 6 c48 -24 56 -44 33 -84 -20 -33 -27 -34 -117 -20 -33 5 -44 2
-59 -15 -39 -44 -12 -121 42 -121 14 0 40 5 58 12 29 10 36 9 55 -8 37 -33 43
-53 22 -76 -63 -70 -199 -63 -270 14 -29 30 -53 89 -53 128 0 66 54 149 115
176 45 20 129 17 174 -6z m665 4 c9 -8 16 -20 16 -26 0 -5 14 2 31 16 18 15
43 26 60 26 36 0 84 -23 98 -47 9 -17 11 -16 33 3 53 49 102 56 156 24 48 -29
64 -77 70 -206 6 -134 -2 -154 -56 -154 -56 0 -62 11 -62 120 0 106 -13 140
-54 140 -41 0 -50 -25 -54 -139 -3 -64 -9 -109 -16 -113 -14 -10 -68 -10 -82
0 -7 4 -13 51 -16 114 -5 114 -14 138 -54 138 -45 0 -54 -23 -54 -134 0 -66
-4 -106 -12 -114 -20 -20 -86 -15 -98 7 -5 11 -10 86 -10 171 0 85 5 160 10
171 13 24 72 26 94 3z m-140 -50 c13 -5 16 -22 16 -80 0 -41 -3 -74 -8 -74 -4
0 -13 26 -19 58 -7 31 -15 67 -19 80 -7 23 1 27 30 16z m240 -90 c10 -26 7
-92 -5 -99 -5 -4 -21 -4 -35 -1 -21 6 -24 12 -24 55 0 26 3 51 7 54 12 13 51
7 57 -9z m221 -39 c0 -48 -1 -49 -32 -56 l-33 -6 0 42 c0 62 8 77 39 73 24 -3
26 -7 26 -53z m2544 -71 c10 -9 -35 -3 -49 6 -11 8 -7 9 15 4 17 -4 32 -8 34
-10z m-13849 -7 c25 -12 80 -107 80 -138 0 -8 4 -19 8 -25 5 -5 19 -36 32 -69
13 -33 27 -64 32 -69 4 -6 8 -19 8 -30 0 -11 9 -38 19 -60 49 -105 111 -294
113 -345 l3 -55 -55 3 c-30 1 -61 8 -68 13 -9 8 -20 7 -40 -1 -18 -9 -28 -9
-30 -2 -2 6 -18 11 -35 11 -18 0 -50 7 -72 14 -25 9 -60 12 -92 9 -36 -4 -53
-2 -53 6 0 6 -13 11 -29 11 -17 0 -33 5 -36 10 -3 6 -21 10 -40 10 -19 0 -37
5 -40 10 -3 6 -39 10 -80 10 -64 0 -77 3 -103 25 -17 14 -34 25 -39 25 -23 0
-73 78 -73 113 0 40 29 87 54 87 23 0 81 52 74 67 -1 4 12 9 30 11 19 2 32 -1
32 -8 0 -6 5 -8 10 -5 9 6 15 105 6 105 -20 0 -36 -16 -36 -35 0 -13 -6 -25
-14 -28 -18 -7 -26 1 -26 25 0 27 -70 102 -84 88 -16 -16 -26 -12 -26 10 0 13
-7 20 -20 20 -15 0 -20 7 -20 25 0 30 36 67 83 85 17 7 46 18 63 26 113 49
403 82 464 51z m1167 -183 c-3 -3 -12 -4 -19 -1 -8 3 -5 6 6 6 11 1 17 -2 13
-5z m276 -271 c-7 -2 -19 -2 -25 0 -7 3 -2 5 12 5 14 0 19 -2 13 -5z"/>
<path d="M3000 2925 l0 -65 58 0 c68 0 92 18 92 68 0 42 -31 62 -97 62 l-53 0
0 -65z"/>
<path d="M2000 2716 c0 -22 12 -26 97 -31 43 -2 90 -7 105 -10 14 -4 34 -3 44
3 13 7 3 12 -48 21 -35 6 -86 11 -111 11 -26 0 -47 5 -47 10 0 6 -9 10 -20 10
-11 0 -20 -6 -20 -14z"/>
<path d="M2578 2653 c7 -3 16 -2 19 1 4 3 -2 6 -13 5 -11 0 -14 -3 -6 -6z"/>
<path d="M2685 2640 c3 -5 15 -10 26 -10 11 0 17 5 14 10 -3 6 -15 10 -26 10
-11 0 -17 -4 -14 -10z"/>
<path d="M1736 2621 c-7 -10 23 -20 42 -14 6 3 10 9 6 14 -7 12 -41 12 -48 0z"/>
<path d="M3340 2589 c0 -5 5 -7 10 -4 6 3 10 8 10 11 0 2 -4 4 -10 4 -5 0 -10
-5 -10 -11z"/>
<path d="M4085 2510 c8 -13 35 -13 55 0 11 7 5 10 -23 10 -23 0 -36 -4 -32
-10z"/>
<path d="M4190 2510 c0 -5 4 -10 9 -10 6 0 13 5 16 10 3 6 -1 10 -9 10 -9 0
-16 -4 -16 -10z"/>
<path d="M4285 2490 c3 -5 10 -10 16 -10 5 0 9 5 9 10 0 6 -7 10 -16 10 -8 0
-12 -4 -9 -10z"/>
<path d="M4340 2490 c0 -5 11 -10 25 -10 14 0 25 5 25 10 0 6 -11 10 -25 10
-14 0 -25 -4 -25 -10z"/>
<path d="M4368 2403 c7 -3 16 -2 19 1 4 3 -2 6 -13 5 -11 0 -14 -3 -6 -6z"/>
<path d="M13695 1570 c-41 -46 -10 -120 50 -120 39 0 68 30 68 70 0 40 -29 70
-68 70 -19 0 -39 -8 -50 -20z m90 -24 c24 -36 10 -56 -40 -56 -30 0 -45 5 -49
16 -9 24 -8 31 10 48 23 24 61 20 79 -8z"/>
<path d="M3166 1612 c-14 -28 -26 -56 -26 -62 0 -11 96 -14 103 -2 3 4 -8 32
-23 62 l-27 54 -27 -52z m57 -52 c-8 -9 -33 33 -33 54 1 16 5 13 20 -14 10
-19 16 -37 13 -40z"/>
<path d="M11965 1575 c-42 -41 -30 -102 25 -125 54 -22 110 19 110 81 0 31
-44 69 -80 69 -19 0 -40 -9 -55 -25z m97 -12 c23 -21 24 -46 1 -40 -10 3 -35
8 -55 12 -40 6 -46 13 -26 33 17 17 58 15 80 -5z"/>
<path d="M13055 1575 c-42 -41 -30 -102 25 -125 54 -22 110 19 110 81 0 31
-44 69 -80 69 -19 0 -40 -9 -55 -25z m99 -11 c9 -8 16 -26 16 -39 0 -19 -6
-23 -37 -26 -64 -6 -83 0 -83 26 0 32 25 55 60 55 16 0 36 -7 44 -16z"/>
<path d="M14152 1587 c-36 -38 -28 -47 38 -47 47 0 62 4 67 16 18 48 -66 73
-105 31z m84 -2 c16 -13 17 -16 4 -25 -19 -12 -90 -13 -90 -1 0 12 40 41 55
41 6 0 20 -7 31 -15z"/>
<path d="M10572 1570 c-29 -27 -28 -71 1 -98 46 -44 117 -14 117 48 0 62 -73
92 -118 50z"/>
<path d="M940 1030 c0 -5 5 -10 10 -10 6 0 10 5 10 10 0 6 -4 10 -10 10 -5 0
-10 -4 -10 -10z"/>
<path d="M4740 3086 c0 -42 -22 -66 -61 -66 -24 0 -29 -4 -29 -25 0 -16 6 -25
15 -25 8 0 15 5 15 10 0 6 10 10 23 10 39 0 67 27 67 65 0 18 -3 40 -6 49 -11
28 -24 17 -24 -18z"/>
<path d="M4310 3016 c0 -25 5 -46 10 -46 6 0 10 18 10 39 0 22 -4 43 -10 46
-6 4 -10 -12 -10 -39z"/>
<path d="M3477 2822 c-38 -42 -7 -122 47 -122 60 0 95 68 60 118 -20 28 -83
31 -107 4z"/>
<path d="M4495 2820 c3 -5 8 -10 11 -10 2 0 4 5 4 10 0 6 -5 10 -11 10 -5 0
-7 -4 -4 -10z"/>
<path d="M3570 2180 c0 -5 5 -10 11 -10 5 0 7 5 4 10 -3 6 -8 10 -11 10 -2 0
-4 -4 -4 -10z"/>
<path d="M3520 2170 c0 -5 5 -10 11 -10 5 0 7 5 4 10 -3 6 -8 10 -11 10 -2 0
-4 -4 -4 -10z"/>
<path d="M3680 2170 c-8 -5 -11 -12 -7 -16 4 -4 13 -2 19 4 15 15 7 24 -12 12z"/>
<path d="M3810 2160 c13 -23 20 -26 20 -6 0 8 -7 16 -15 20 -13 4 -14 2 -5
-14z"/>
<path d="M3726 2161 c-4 -5 -2 -12 3 -15 5 -4 12 -2 15 3 4 5 2 12 -3 15 -5 4
-12 2 -15 -3z"/>
<path d="M4065 2140 c3 -5 8 -10 11 -10 2 0 4 5 4 10 0 6 -5 10 -11 10 -5 0
-7 -4 -4 -10z"/>
<path d="M4190 1970 c0 -5 5 -10 10 -10 6 0 10 5 10 10 0 6 -4 10 -10 10 -5 0
-10 -4 -10 -10z"/>
<path d="M4456 1951 c-4 -7 -5 -15 -2 -18 9 -9 19 4 14 18 -4 11 -6 11 -12 0z"/>
<path d="M3560 1708 c-114 -78 -62 -230 88 -254 23 -4 42 -10 42 -15 0 -14
-47 -11 -87 6 -52 22 -78 19 -97 -11 -26 -38 -17 -75 24 -99 29 -16 52 -20
131 -20 83 0 100 3 119 20 51 47 65 125 31 180 -19 32 -72 60 -133 70 -21 3
-40 10 -43 15 -9 14 55 12 95 -2 31 -10 35 -9 57 17 55 63 10 107 -117 113
-66 3 -79 1 -110 -20z m203 -12 c41 -17 46 -33 19 -67 -18 -21 -21 -22 -65
-10 -52 15 -97 8 -97 -14 0 -17 15 -24 103 -49 39 -12 63 -25 74 -42 21 -33
21 -105 0 -137 -35 -54 -177 -69 -254 -29 -48 25 -50 30 -27 74 17 33 23 33
98 5 43 -16 91 -9 91 13 0 8 -27 20 -65 31 -96 26 -129 69 -121 159 3 32 37
68 75 80 41 12 123 6 169 -14z"/>
<path d="M4105 1723 c-43 -11 -45 -18 -45 -203 l0 -177 39 -31 c39 -31 39 -31
46 -9 4 13 8 17 12 10 9 -24 30 -13 37 18 3 17 6 67 6 110 0 43 4 89 10 103
12 33 52 43 85 22 24 -16 25 -22 25 -106 0 -95 16 -170 37 -170 7 0 13 5 13
10 0 15 30 12 30 -2 0 -8 7 -5 15 6 14 18 16 18 33 3 23 -21 32 -21 32 -2 0
18 12 19 28 3 17 -17 72 -19 72 -3 0 7 6 16 13 18 6 3 2 6 -10 6 -13 1 -23 -3
-23 -9 0 -5 -9 -10 -19 -10 -11 0 -23 5 -26 10 -3 6 -16 10 -28 10 -21 0 -22
3 -22 123 0 108 -3 128 -23 169 -13 27 -38 58 -54 70 -41 28 -128 37 -161 15
-20 -13 -27 -13 -38 -3 -17 16 -57 25 -84 19z m77 -38 l11 -24 29 24 c51 43
121 30 180 -32 40 -42 48 -74 48 -192 0 -118 -6 -131 -54 -131 -55 0 -60 10
-64 122 -5 117 -15 138 -69 138 -60 0 -73 -25 -73 -138 0 -63 -4 -102 -12
-110 -20 -20 -86 -15 -98 7 -5 11 -10 86 -10 171 0 85 5 160 10 171 8 14 21
19 51 19 32 0 41 -4 51 -25z"/>
<path d="M4632 1720 c-81 -34 -132 -111 -132 -198 0 -91 28 -132 139 -206 60
-41 63 -42 55 -21 -4 10 0 15 11 15 9 0 23 -7 31 -15 20 -19 64 -20 64 -1 0 8
-5 16 -12 18 -7 3 7 15 30 28 81 45 121 140 98 230 -27 102 -90 153 -195 157
-36 2 -76 -2 -89 -7z m167 -26 c76 -38 106 -88 106 -173 0 -57 -4 -72 -30
-108 -76 -106 -223 -118 -308 -24 -92 102 -66 245 56 306 65 32 110 32 176 -1z"/>
<path d="M4655 1575 c-42 -41 -30 -102 25 -125 54 -22 110 19 110 81 0 31 -44
69 -80 69 -19 0 -40 -9 -55 -25z m80 5 c32 -12 45 -46 33 -83 -17 -48 -100
-49 -118 -2 -16 42 5 76 57 94 1 1 13 -3 28 -9z"/>
<path d="M5035 1716 c-45 -20 -67 -50 -72 -99 -10 -85 46 -147 145 -163 23 -4
42 -10 42 -15 0 -14 -47 -11 -87 6 -51 22 -78 19 -97 -10 -36 -54 -16 -89 67
-115 30 -9 36 -15 27 -24 -9 -8 -14 -8 -17 2 -3 6 -8 12 -13 12 -5 0 -2 -13 6
-30 9 -16 20 -30 26 -30 5 0 15 14 21 30 9 25 17 30 43 30 24 0 33 -5 38 -22
6 -22 7 -22 17 -5 6 10 8 21 4 25 -3 4 9 11 27 18 93 31 105 184 18 229 -16 8
-52 20 -79 26 -28 6 -53 15 -57 20 -8 13 57 11 96 -3 31 -10 35 -9 57 17 32
37 28 75 -12 95 -41 20 -162 24 -200 6z m188 -20 c41 -17 46 -33 19 -67 -18
-21 -21 -22 -65 -10 -52 15 -97 8 -97 -14 0 -17 15 -24 103 -49 39 -12 63 -25
74 -42 21 -33 21 -105 0 -137 -35 -54 -177 -69 -254 -29 -48 25 -50 30 -27 74
17 33 23 33 98 5 43 -16 91 -9 91 13 0 8 -27 20 -65 31 -96 26 -129 69 -121
159 3 32 37 68 75 80 41 12 123 6 169 -14z"/>
<path d="M5405 1716 c-45 -20 -67 -50 -72 -99 -10 -85 46 -147 145 -163 23 -4
42 -10 42 -15 0 -14 -47 -11 -87 6 -52 22 -78 19 -97 -11 -43 -65 12 -115 134
-122 119 -6 190 42 190 130 0 78 -39 117 -139 139 -28 6 -53 15 -57 20 -8 13
57 11 96 -3 31 -10 35 -9 57 17 32 37 28 75 -12 95 -41 20 -162 24 -200 6z
m188 -20 c41 -17 46 -33 19 -67 -18 -21 -21 -22 -65 -10 -52 15 -97 8 -97 -14
0 -17 15 -24 103 -49 39 -12 63 -25 74 -42 21 -33 21 -105 0 -137 -35 -54
-177 -69 -254 -29 -48 25 -50 30 -27 74 17 33 23 33 98 5 43 -16 91 -9 91 13
0 8 -27 20 -65 31 -96 26 -129 69 -121 159 3 32 37 68 75 80 41 12 123 6 169
-14z"/>
<path d="M6010 1722 c-8 -2 -25 -8 -36 -14 -15 -7 -28 -7 -42 1 -11 6 -41 11
-65 11 -51 0 -94 -26 -141 -83 -38 -48 -49 -143 -21 -198 22 -43 62 -87 97
-105 33 -17 98 -18 133 -2 19 9 28 9 37 0 7 -7 33 -12 60 -12 37 0 50 4 58 19
15 29 13 343 -2 363 -14 17 -54 27 -78 20z m-69 -38 c19 -17 20 -17 35 4 10
14 26 22 44 22 61 0 60 4 60 -190 0 -194 1 -190 -60 -190 -18 0 -34 8 -44 21
l-15 22 -27 -22 c-83 -65 -233 41 -234 167 0 67 52 149 115 178 37 18 100 11
126 -12z"/>
<path d="M5842 1570 c-29 -27 -28 -71 1 -98 46 -44 117 -14 117 48 0 62 -73
92 -118 50z m88 -10 c32 -32 25 -66 -17 -89 -17 -8 -29 -9 -43 -1 -25 13 -43
47 -34 63 29 50 61 60 94 27z"/>
<path d="M6225 1716 c-45 -20 -67 -50 -72 -99 -10 -85 46 -147 145 -163 23 -4
42 -10 42 -15 0 -14 -47 -11 -87 6 -52 22 -78 19 -97 -11 -43 -65 12 -115 134
-122 119 -6 190 42 190 130 0 78 -39 117 -139 139 -28 6 -53 15 -57 20 -8 13
57 11 96 -3 31 -10 35 -9 57 17 32 37 28 75 -12 95 -41 20 -162 24 -200 6z
m188 -20 c41 -17 46 -33 19 -67 -18 -21 -21 -22 -65 -10 -52 15 -97 8 -97 -14
0 -17 15 -24 103 -49 39 -12 63 -25 74 -42 21 -33 21 -105 0 -137 -35 -54
-177 -69 -254 -29 -48 25 -50 30 -27 74 17 33 23 33 98 5 43 -16 91 -9 91 13
0 8 -27 20 -65 31 -96 26 -129 69 -121 159 3 32 37 68 75 80 41 12 123 6 169
-14z"/>
<path d="M6837 1720 c-83 -26 -137 -105 -137 -200 0 -93 44 -162 122 -195 56
-23 184 -20 226 5 37 23 43 60 16 99 -15 21 -21 22 -73 15 -74 -9 -102 -7
-120 11 -14 13 -4 15 82 15 91 0 100 2 122 25 51 50 27 154 -48 209 -31 23
-140 32 -190 16z m163 -22 c61 -32 85 -68 85 -128 0 -75 -14 -84 -140 -88 -81
-3 -105 -7 -105 -18 0 -18 51 -44 86 -44 15 0 45 5 67 12 37 11 41 10 59 -12
27 -33 19 -62 -22 -82 -47 -24 -152 -24 -205 1 -94 43 -137 151 -101 254 19
52 42 76 101 103 63 30 118 30 175 2z"/>
<path d="M6862 1587 c-36 -38 -28 -47 38 -47 47 0 62 4 67 16 18 48 -66 73
-105 31z m88 -2 c19 -22 3 -35 -46 -35 -48 0 -52 4 -27 32 19 22 56 24 73 3z"/>
<path d="M7149 1701 c-16 -16 -29 -39 -29 -51 0 -12 23 -45 51 -76 l52 -54
-52 -54 c-29 -31 -51 -64 -51 -76 0 -26 54 -80 80 -80 10 0 44 23 74 51 l56
51 55 -51 c29 -28 60 -51 69 -51 8 0 28 12 45 26 46 39 42 71 -19 137 l-49 54
49 48 c26 26 51 56 53 67 7 24 -47 88 -75 88 -10 0 -44 -23 -73 -51 l-55 -51
-56 51 c-30 28 -65 51 -76 51 -11 0 -33 -13 -49 -29z m121 -37 l60 -57 60 57
c37 36 65 55 72 50 28 -15 58 -48 58 -63 0 -8 -26 -41 -57 -73 l-57 -58 57
-58 c31 -32 57 -64 57 -72 0 -22 -41 -60 -65 -60 -12 0 -42 21 -70 50 -27 28
-54 50 -60 50 -6 0 -33 -22 -60 -50 -27 -27 -58 -50 -68 -50 -17 0 -67 45 -67
61 0 4 25 35 56 68 l56 61 -56 61 c-31 33 -56 64 -56 69 0 11 59 70 70 70 5 0
36 -25 70 -56z"/>
<path d="M7615 1722 c-45 -9 -45 -12 -45 -287 0 -295 -1 -290 73 -289 56 2 67
21 67 115 l0 78 49 -6 c65 -7 93 1 137 40 68 59 91 147 58 225 -18 43 -58 88
-96 108 -32 17 -101 18 -129 3 -13 -6 -25 -7 -32 -1 -15 12 -56 19 -82 14z
m73 -32 c17 -18 21 -19 32 -6 17 22 73 30 113 17 35 -12 86 -59 107 -99 15
-30 15 -124 -1 -154 -17 -33 -60 -78 -91 -94 -35 -18 -89 -18 -114 1 -10 8
-22 15 -26 15 -5 0 -8 -39 -8 -86 0 -106 -8 -124 -58 -124 -21 0 -43 5 -50 12
-16 16 -17 490 -2 519 15 26 73 26 98 -1z"/>
<path d="M7720 1570 c-42 -42 -11 -113 50 -113 61 0 92 71 50 113 -11 11 -33
20 -50 20 -17 0 -39 -9 -50 -20z m84 -3 c11 -8 19 -26 19 -42 0 -47 -64 -75
-93 -40 -29 35 -4 95 40 95 9 0 24 -6 34 -13z"/>
<path d="M8130 1719 c-82 -34 -130 -107 -130 -199 0 -98 54 -175 139 -201 59
-17 194 -8 220 15 25 23 27 63 5 94 -14 21 -20 22 -97 16 -69 -6 -85 -4 -96
10 -12 15 -5 16 83 16 90 0 99 2 121 25 51 50 27 154 -48 209 -32 24 -154 33
-197 15z m170 -21 c61 -32 85 -68 85 -128 0 -75 -14 -84 -140 -88 -81 -3 -105
-7 -105 -18 0 -18 51 -44 86 -44 15 0 45 5 67 12 37 11 41 10 59 -12 27 -33
19 -62 -22 -82 -47 -24 -152 -24 -205 1 -94 43 -137 151 -101 254 19 52 42 76
101 103 63 30 118 30 175 2z"/>
<path d="M8162 1587 c-36 -38 -28 -47 38 -47 47 0 62 4 67 16 18 48 -66 73
-105 31z m88 -2 c19 -22 3 -35 -46 -35 -49 0 -56 11 -22 34 28 20 52 20 68 1z"/>
<path d="M8485 1723 c-43 -11 -45 -18 -45 -203 0 -199 1 -201 69 -202 65 -1
71 10 71 126 0 129 6 140 83 137 47 -1 58 2 71 21 9 12 16 39 16 60 0 31 -5
40 -30 53 -37 19 -61 19 -107 0 -21 -9 -40 -12 -47 -6 -16 12 -57 19 -81 14z
m77 -32 c11 -18 12 -18 42 0 36 22 94 25 121 6 14 -11 16 -21 11 -49 -9 -50
-26 -61 -79 -53 -38 6 -48 4 -66 -14 -19 -19 -21 -33 -21 -124 0 -116 -5 -127
-60 -127 -20 0 -41 5 -48 12 -15 15 -17 320 -2 349 15 26 85 27 102 0z"/>
<path d="M9090 1719 c-81 -34 -129 -107 -130 -197 0 -150 107 -232 279 -211
36 4 70 14 82 25 23 21 25 61 3 92 -14 21 -20 22 -97 16 -69 -6 -85 -4 -96 10
-12 15 -5 16 81 16 106 0 132 11 146 63 16 60 -12 126 -72 171 -31 24 -153 33
-196 15z m170 -21 c61 -32 85 -68 85 -128 0 -75 -14 -84 -140 -88 -81 -3 -105
-7 -105 -18 0 -18 51 -44 86 -44 15 0 45 5 67 12 37 11 41 10 59 -12 27 -33
19 -62 -22 -82 -47 -24 -152 -24 -205 1 -94 43 -137 151 -101 254 19 52 42 76
101 103 63 30 118 30 175 2z"/>
<path d="M9122 1587 c-36 -38 -28 -47 38 -47 47 0 62 4 67 16 18 48 -66 73
-105 31z m88 -2 c19 -22 3 -35 -46 -35 -49 0 -56 11 -22 34 28 20 52 20 68 1z"/>
<path d="M8792 1708 c-8 -8 -12 -65 -12 -189 0 -198 1 -202 70 -202 69 0 70 4
70 202 0 124 -4 181 -12 189 -16 16 -100 16 -116 0z m99 -8 c18 -10 19 -23 19
-178 0 -117 -4 -172 -12 -180 -20 -20 -86 -15 -98 7 -5 11 -10 86 -10 171 0
85 5 160 10 171 12 21 59 26 91 9z"/>
<path d="M3831 1336 c-30 -17 -18 -23 42 -24 32 0 47 4 44 11 -2 7 -13 12 -24
13 -11 1 -24 4 -29 7 -5 3 -20 0 -33 -7z"/>
<path d="M4000 1336 c0 -8 5 -18 10 -21 6 -3 10 3 10 14 0 12 -4 21 -10 21 -5
0 -10 -6 -10 -14z"/>
<path d="M4214 1329 c-8 -14 18 -31 30 -19 9 9 0 30 -14 30 -5 0 -12 -5 -16
-11z"/>
<path d="M4282 1318 c6 -18 28 -21 28 -4 0 9 -7 16 -16 16 -9 0 -14 -5 -12
-12z"/>
<path d="M4607 1299 c-4 -15 -1 -19 10 -17 22 4 27 24 9 31 -8 3 -16 -2 -19
-14z"/>
<path d="M4874 1306 c-4 -10 -2 -22 4 -28 8 -8 13 -7 18 6 4 10 2 22 -4 28 -8
8 -13 7 -18 -6z"/>
<path d="M4923 1298 c2 -7 10 -13 17 -13 7 0 15 6 18 13 2 7 -5 12 -18 12 -13
0 -20 -5 -17 -12z"/>
<path d="M4980 1296 c0 -8 5 -18 10 -21 6 -3 10 3 10 14 0 12 -4 21 -10 21 -5
0 -10 -6 -10 -14z"/>
<path d="M5210 1291 c0 -5 5 -13 10 -16 6 -3 10 -2 10 4 0 5 -4 13 -10 16 -5
3 -10 2 -10 -4z"/>
<path d="M5257 1294 c-12 -12 4 -24 34 -24 31 0 39 14 13 24 -20 8 -39 8 -47
0z"/>
<path d="M5376 1291 c-16 -6 -17 -9 -6 -16 21 -13 83 -10 88 5 3 9 -2 11 -17
7 -11 -3 -24 -1 -27 4 -6 10 -12 10 -38 0z"/>
<path d="M5520 1285 c0 -8 5 -15 10 -15 6 0 10 7 10 15 0 8 -4 15 -10 15 -5 0
-10 -7 -10 -15z"/>
<path d="M5810 1255 c0 -8 5 -15 10 -15 6 0 10 7 10 15 0 8 -4 15 -10 15 -5 0
-10 -7 -10 -15z"/>
<path d="M3730 916 c0 -32 26 -38 117 -26 108 14 133 20 133 31 0 5 -56 9
-125 9 -100 0 -125 -3 -125 -14z"/>
<path d="M4293 923 c9 -2 23 -2 30 0 6 3 -1 5 -18 5 -16 0 -22 -2 -12 -5z"/>
<path d="M3935 859 c-38 -10 -87 -19 -107 -19 -44 0 -68 -8 -68 -24 0 -18 61
-160 75 -175 11 -11 20 -10 57 8 80 38 208 23 208 -25 0 -8 -21 -24 -46 -36
-36 -15 -62 -19 -118 -16 -66 3 -71 2 -68 -17 7 -39 149 -358 163 -365 18 -10
831 8 842 19 5 5 -6 19 -25 32 -49 35 -76 69 -89 111 -18 57 7 103 87 161 36
26 71 47 78 47 8 0 26 -20 40 -45 15 -24 45 -59 68 -77 66 -53 99 -89 104
-117 8 -36 45 -77 78 -85 107 -27 356 -13 381 21 13 17 14 17 28 -1 14 -19 85
-33 114 -22 18 7 -55 72 -104 93 -38 15 -41 25 -14 52 10 10 26 45 36 77 10
33 24 66 30 74 17 21 29 61 26 85 -4 29 -29 65 -46 65 -12 0 -12 -5 1 -35 11
-26 12 -41 4 -55 -36 -67 -275 -110 -446 -80 -114 21 -169 33 -179 42 -5 4
-18 8 -29 8 -31 0 -121 59 -141 92 -9 16 -15 38 -12 49 4 15 0 19 -18 19 -13
0 -26 4 -29 9 -3 5 -21 12 -41 15 -38 7 -91 47 -100 75 -3 10 -21 27 -41 37
-33 18 -36 18 -45 2 -6 -10 -19 -18 -29 -18 -13 0 -20 -7 -20 -18 0 -10 -4
-22 -9 -27 -5 -6 -11 -26 -13 -45 l-3 -35 -50 1 c-27 0 -90 7 -140 15 -49 7
-140 14 -202 14 -61 0 -115 3 -119 7 -4 4 9 32 29 63 21 30 37 57 37 60 0 10
-67 3 -135 -16z m910 -233 c19 -8 35 -21 35 -28 0 -17 -131 -85 -198 -103 -29
-7 -50 -9 -46 -4 3 5 13 9 22 10 23 1 114 51 119 65 2 6 -8 16 -22 22 -32 15
-32 26 3 39 38 15 48 15 87 -1z m-585 -153 c14 -10 43 -17 72 -17 26 0 48 -3
48 -7 0 -9 -82 -19 -166 -19 -65 0 -74 2 -74 18 0 10 5 23 12 30 18 18 80 15
108 -5z m245 -13 c-16 -4 -50 -7 -75 -7 l-45 0 45 7 c25 4 59 7 75 7 l30 1
-30 -8z m835 -200 c0 -5 -11 -10 -25 -10 -14 0 -25 5 -25 10 0 6 11 10 25 10
14 0 25 -4 25 -10z"/>
<path d="M4760 867 c0 -9 67 -47 84 -47 18 0 20 8 7 28 -8 13 -91 30 -91 19z"/>
<path d="M4165 816 c-17 -13 -14 -15 38 -26 31 -6 61 -9 67 -5 17 10 11 25 -9
25 -11 0 -23 5 -26 10 -9 14 -48 12 -70 -4z"/>
<path d="M5095 781 c-10 -17 10 -20 68 -12 80 11 82 21 4 21 -36 0 -68 -4 -72
-9z"/>
<path d="M4977 763 c-4 -3 -24 -9 -44 -13 l-38 -8 35 0 c19 -1 62 5 95 12 l60
14 -51 1 c-28 1 -54 -2 -57 -6z"/>
<path d="M5532 715 c20 -14 50 -25 65 -24 25 0 23 3 -22 25 -65 31 -90 31 -43
-1z"/>
<path d="M5721 546 c-9 -11 -6 -17 14 -30 28 -19 34 -4 11 27 -11 14 -15 15
-25 3z"/>
</g>
</svg>
